<svg width="3000" height="2000" viewBox="0 0 3000 2000" fill="none" xmlns="http://www.w3.org/2000/svg">
<path d="M3334.72 2023.77H-333.23V-24.5303H3334.72V2023.77ZM-330.23 2020.77H3331.72V-21.5303H-330.23V2020.78V2020.77Z" fill="#363636"/>
<path d="M3059.85 1870.38H-58.3613V128.87H3059.85V1870.38ZM-55.3613 1867.38H3056.85V131.87H-55.3613V1867.38Z" fill="#363636"/>
<path d="M2826.21 1739.99H175.279V259.25H2826.21V1739.98V1739.99ZM178.279 1736.99H2823.21V262.25H178.279V1736.98V1736.99Z" fill="#363636"/>
<path d="M2627.61 1629.16H373.879V370.08H2627.62V1629.15L2627.61 1629.16ZM376.869 1626.16H2624.61V373.08H376.879V1626.15L376.869 1626.16Z" fill="#363636"/>
<path d="M2458.81 1534.95H542.68V464.29H2458.81V1534.95ZM545.68 1531.95H2455.81V467.29H545.68V1531.95Z" fill="#363636"/>
<path d="M3332.44 -24.435L2456.57 464.469L2458.03 467.088L3333.9 -21.8155L3332.44 -24.435Z" fill="#363636"/>
<path d="M2457.88 1531.93L2456.42 1534.55L3332.37 2023.31L3333.83 2020.69L2457.88 1531.93Z" fill="#363636"/>
<path d="M3026.97 2023.52L2296.38 1534.25V464.99L2297.05 464.54L3026.97 -24.2803L3028.64 -21.7903L2299.38 466.59V1532.65L3028.64 2021.03L3026.97 2023.52Z" fill="#363636"/>
<path d="M2721.43 2023.42L2136.95 1534.15V465.089L2137.49 464.639L2721.43 -24.1807L2723.36 -21.8807L2139.95 466.489V1532.75L2723.36 2021.12L2721.43 2023.42Z" fill="#363636"/>
<path d="M2415.86 2023.27L1977.53 1534.03V465.22L1977.91 464.79L2415.86 -24.0303L2418.1 -22.0303L1980.53 466.36V1532.88L2418.1 2021.27L2415.86 2023.27Z" fill="#363636"/>
<path d="M2110.28 2023.04L1818.1 1533.87V465.38L1818.31 465.02L2110.28 -23.7998L2112.86 -22.2598L1821.1 466.2V1533.04L2112.86 2021.5L2110.28 2023.04Z" fill="#363636"/>
<path d="M1804.72 2022.7L1658.67 1533.67V465.57L1658.73 465.36L1804.72 -23.46L1807.59 -22.6L1661.67 466.01V1533.23L1807.59 2021.84L1804.72 2022.7Z" fill="#363636"/>
<path d="M1502.24 -23.0303H1499.24V2022.28H1502.24V-23.0303Z" fill="#363636"/>
<path d="M1196.77 2022.7L1193.9 2021.84L1339.82 1533.23V466.01L1193.9 -22.6L1196.77 -23.46L1342.82 465.57V1533.67L1342.75 1533.88L1196.77 2022.7Z" fill="#363636"/>
<path d="M891.209 2023.04L888.629 2021.5L1180.39 1533.04V466.2L888.629 -22.2598L891.209 -23.7998L1183.39 465.38V1533.87L1183.18 1534.22L891.209 2023.04Z" fill="#363636"/>
<path d="M585.619 2023.27L583.389 2021.27L1020.96 1532.88V466.36L583.389 -22.0303L585.619 -24.0303L1023.96 465.22V1534.03L1023.58 1534.45L585.619 2023.27Z" fill="#363636"/>
<path d="M280.059 2023.42L278.129 2021.12L861.539 1532.75V466.489L278.129 -21.8807L280.059 -24.1807L864.539 465.089V1534.15L863.999 1534.6L280.059 2023.42Z" fill="#363636"/>
<path d="M-25.4804 2023.52L-27.1504 2021.03L702.11 1532.65V466.59L-27.1504 -21.7903L-25.4804 -24.2803L705.11 464.99V1534.25L704.44 1534.7L-25.4804 2023.52Z" fill="#363636"/>
<path d="M-331.013 -24.3249L-332.475 -21.7051L543.477 467.046L544.939 464.426L-331.013 -24.3249Z" fill="#363636"/>
<path d="M2457.58 645.23H543.91L543.66 645.14L-332.25 319.26L-331.21 316.45L544.45 642.23H2457.04L3332.7 316.45L3333.74 319.26L2457.58 645.23Z" fill="#363636"/>
<path d="M2457.45 823.18L543.91 823.15L-332 660.21L-331.46 657.26L544.32 820.18H2457.17L3332.94 657.26L3333.49 660.21L2457.45 823.18Z" fill="#363636"/>
<path d="M2457.31 1001.12H544.18H-331.73V998.12H544.18H2457.31H3333.22V1001.12H2457.31Z" fill="#363636"/>
<path d="M3332.94 1341.98L2457.17 1179.06H544.32L-331.46 1341.98L-332 1339.03L544.04 1176.06L2457.58 1176.09L3333.49 1339.03L3332.94 1341.98Z" fill="#363636"/>
<path d="M3332.7 1682.8L2457.04 1357.01H544.45L-331.21 1682.8L-332.25 1679.98L543.91 1354.01H2457.58L2457.83 1354.1L3333.74 1679.98L3332.7 1682.8Z" fill="#363636"/>
<path d="M543.414 1532.11L-332.453 2021.01L-330.991 2023.63L544.876 1534.73L543.414 1532.11Z" fill="#363636"/>
</svg>
